<?xml version="1.0" encoding="utf-8"?>
<svg version="1.1" xmlns:xlink="http://www.w3.org/1999/xlink" width="112px" height="112px" xmlns="http://www.w3.org/2000/svg">
  <defs>
    <filter x="596px" y="1138px" width="112px" height="112px" filterUnits="userSpaceOnUse" id="filter4">
      <feOffset dx="5" dy="0" in="SourceAlpha" result="shadowOffsetInner" />
      <feGaussianBlur stdDeviation="7.5" in="shadowOffsetInner" result="shadowGaussian" />
      <feComposite in2="shadowGaussian" operator="atop" in="SourceAlpha" result="shadowComposite" />
      <feColorMatrix type="matrix" values="0 0 0 0 0  0 0 0 0 0  0 0 0 0 0  0 0 0 0.3137254901960784 0  " in="shadowComposite" />
    </filter>
    <g id="widget5">
      <path d="M 50.2890625 50.2890625  C 54.60917467948718 45.96895032051282  56.76923076923077 40.770032051282044  56.76923076923077 34.69230769230769  C 56.76923076923077 28.61458333333333  54.60917467948718 23.41566506410256  50.2890625 19.095552884615383  C 45.968950320512825 14.775440705128199  40.77003205128205 12.615384615384617  34.69230769230769 12.615384615384617  C 28.614583333333336 12.615384615384617  23.41566506410257 14.775440705128199  19.095552884615383 19.095552884615383  C 14.775440705128206 23.41566506410256  12.615384615384617 28.61458333333333  12.615384615384617 34.69230769230769  C 12.615384615384617 40.770032051282044  14.775440705128206 45.96895032051282  19.095552884615383 50.2890625  C 23.41566506410257 54.60917467948717  28.614583333333336 56.76923076923077  34.69230769230769 56.76923076923077  C 40.77003205128205 56.76923076923077  45.968950320512825 54.60917467948717  50.2890625 50.2890625  Z M 80.1766826923077 71.25721153846153  C 81.39222756410257 72.47275641025642  82 73.9511217948718  82 75.6923076923077  C 82 77.40064102564104  81.37580128205128 78.87900641025642  80.12740384615385 80.12740384615385  C 78.87900641025642 81.37580128205128  77.40064102564104 82  75.6923076923077 82  C 73.91826923076923 82  72.43990384615385 81.37580128205128  71.25721153846153 80.12740384615385  L 54.35456730769231 63.27403846153847  C 48.473958333333336 67.34775641025642  41.9198717948718 69.38461538461539  34.69230769230769 69.38461538461539  C 29.99439102564103 69.38461538461539  25.501802884615383 68.47295673076923  21.214543269230766 66.64963942307693  C 16.927283653846153 64.82632211538461  13.231370192307692 62.36237980769231  10.126802884615385 59.2578125  C 7.022235576923077 56.15324519230769  4.55829326923077 52.45733173076923  2.7349759615384617 48.17007211538461  C 0.9116586538461539 43.8828125  0 39.39022435897435  0 34.69230769230769  C 0 29.994391025641015  0.9116586538461539 25.501802884615383  2.7349759615384617 21.214543269230766  C 4.55829326923077 16.927283653846153  7.022235576923077 13.231370192307697  10.126802884615385 10.126802884615383  C 13.231370192307692 7.02223557692308  16.927283653846153 4.558293269230768  21.214543269230766 2.7349759615384643  C 25.501802884615383 0.9116586538461517  29.99439102564103 0  34.69230769230769 0  C 39.39022435897436 0  43.8828125 0.9116586538461517  48.17007211538461 2.7349759615384643  C 52.45733173076923 4.558293269230768  56.15324519230769 7.02223557692308  59.2578125 10.126802884615383  C 62.36237980769231 13.231370192307697  64.82632211538461 16.927283653846153  66.64963942307692 21.214543269230766  C 68.47295673076923 25.501802884615383  69.38461538461539 29.994391025641015  69.38461538461539 34.69230769230769  C 69.38461538461539 41.91987179487179  67.34775641025642 48.47395833333333  63.27403846153847 54.35456730769231  L 80.1766826923077 71.25721153846153  Z " fill-rule="nonzero" fill="#ffffff" stroke="none" transform="matrix(1 0 0 1 606 1153 )" />
    </g>
  </defs>
  <g transform="matrix(1 0 0 1 -596 -1138 )">
    <use xlink:href="#widget5" filter="url(#filter4)" />
    <use xlink:href="#widget5" />
  </g>
</svg>