<?xml version="1.0" encoding="utf-8"?>
<svg version="1.1" xmlns:xlink="http://www.w3.org/1999/xlink" width="202px" height="202px" xmlns="http://www.w3.org/2000/svg">
  <defs>
    <filter x="489px" y="1048px" width="202px" height="202px" filterUnits="userSpaceOnUse" id="filter2">
      <feOffset dx="5" dy="0" in="SourceAlpha" result="shadowOffsetInner" />
      <feGaussianBlur stdDeviation="7.5" in="shadowOffsetInner" result="shadowGaussian" />
      <feComposite in2="shadowGaussian" operator="atop" in="SourceAlpha" result="shadowComposite" />
      <feColorMatrix type="matrix" values="0 0 0 0 0  0 0 0 0 0  0 0 0 0 0  0 0 0 0.3137254901960784 0  " in="shadowComposite" />
    </filter>
    <g id="widget3">
      <path d="M 42.83203125 11.53385416666666  C 56.00824652777778 3.8446180555555407  70.39756944444444 0  86 0  C 101.60243055555556 0  115.99175347222224 3.8446180555555407  129.16796875 11.53385416666666  C 142.34418402777777 19.22309027777776  152.77690972222223 29.65581597222222  160.46614583333334 42.83203125  C 168.15538194444443 56.00824652777776  172 70.39756944444441  172 86  C 172 101.60243055555556  168.15538194444443 115.9917534722222  160.46614583333334 129.16796875  C 152.77690972222223 142.34418402777777  142.34418402777777 152.77690972222223  129.16796875 160.46614583333334  C 115.99175347222224 168.15538194444446  101.60243055555556 172  86 172  C 70.39756944444444 172  56.00824652777778 168.15538194444446  42.83203125 160.46614583333334  C 29.655815972222225 152.77690972222223  19.22309027777778 142.34418402777777  11.533854166666668 129.16796875  C 3.844618055555555 115.9917534722222  0 101.60243055555556  0 86  C 0 70.39756944444441  3.844618055555555 56.00824652777776  11.533854166666668 42.83203125  C 19.22309027777778 29.65581597222222  29.655815972222225 19.22309027777776  42.83203125 11.53385416666666  Z M 121.49739583333334 56.99739583333334  C 120.22829861111111 56.62413194444442  118.6232638888889 57.0720486111111  116.68229166666666 58.34114583333334  C 116.53298611111111 58.4157986111111  116.17838541666666 58.77039930555554  115.61848958333334 59.40494791666666  C 115.05859375 60.03949652777778  114.5546875 60.39409722222222  114.10677083333334 60.46875  C 114.2560763888889 60.46875  114.4240451388889 60.28211805555554  114.61067708333334 59.90885416666666  C 114.79730902777779 59.53559027777778  114.98394097222224 59.125  115.17057291666666 58.67708333333334  C 115.35720486111111 58.22916666666666  115.48784722222224 57.96788194444444  115.5625 57.89322916666666  C 116.01041666666666 57.37065972222222  116.83159722222224 56.81076388888888  118.02604166666666 56.21354166666666  C 119.07118055555559 55.765625  121.01215277777779 55.31770833333334  123.84895833333334 54.86979166666666  C 126.38715277777779 54.27256944444442  128.29079861111111 54.68315972222222  129.55989583333334 56.1015625  C 129.41059027777777 55.95225694444442  129.76519097222223 55.46701388888888  130.62369791666666 54.64583333333334  C 131.48220486111111 53.82465277777776  132.0234375 53.3767361111111  132.24739583333334 53.30208333333334  C 132.47135416666666 53.15277777777776  133.03125 52.98480902777776  133.92708333333334 52.79817708333334  C 134.82291666666666 52.61154513888888  135.3828125 52.33159722222222  135.60677083333334 51.95833333333334  L 135.83072916666666 49.49479166666666  C 134.93489583333334 49.56944444444442  134.28168402777777 49.30815972222222  133.87109375 48.7109375  C 133.46050347222223 48.11371527777776  133.21788194444446 47.3298611111111  133.14322916666666 46.359375  C 133.14322916666666 46.50868055555554  132.91927083333334 46.80729166666666  132.47135416666666 47.25520833333334  C 132.47135416666666 46.73263888888888  132.30338541666666 46.43402777777776  131.96744791666666 46.359375  C 131.63151041666666 46.28472222222222  131.20225694444446 46.3220486111111  130.6796875 46.47135416666666  C 130.15711805555557 46.62065972222222  129.82118055555557 46.6579861111111  129.671875 46.58333333333334  C 128.92534722222223 46.359375  128.36545138888889 46.07942708333334  127.9921875 45.74348958333334  C 127.61892361111111 45.40755208333334  127.3203125 44.79166666666666  127.09635416666666 43.89583333333334  C 126.87239583333334 43  126.72309027777779 42.44010416666666  126.6484375 42.21614583333334  C 126.49913194444446 41.84288194444442  126.14453125 41.43229166666666  125.58463541666666 40.984375  C 125.02473958333334 40.53645833333334  124.6701388888889 40.16319444444442  124.52083333333334 39.86458333333334  C 124.44618055555559 39.71527777777776  124.35286458333334 39.50998263888888  124.24088541666666 39.24869791666666  C 124.12890625 38.98741319444442  124.01692708333334 38.74479166666666  123.90494791666666 38.52083333333334  C 123.79296875 38.296875  123.64366319444446 38.0915798611111  123.45703125 37.90494791666666  C 123.27039930555559 37.71831597222222  123.06510416666666 37.625  122.84114583333334 37.625  C 122.6171875 37.625  122.35590277777779 37.81163194444442  122.05729166666666 38.18489583333334  C 121.75868055555559 38.55815972222222  121.4787326388889 38.9314236111111  121.21744791666666 39.3046875  C 120.95616319444446 39.67795138888888  120.78819444444446 39.86458333333334  120.71354166666666 39.86458333333334  C 120.48958333333334 39.71527777777776  120.265625 39.65928819444442  120.04166666666666 39.69661458333334  C 119.81770833333334 39.73394097222222  119.64973958333334 39.7712673611111  119.53776041666666 39.80859375  C 119.42578125 39.84592013888888  119.2578125 39.95789930555554  119.03385416666666 40.14453125  C 118.80989583333334 40.33116319444442  118.6232638888889 40.46180555555554  118.47395833333334 40.53645833333334  C 118.25 40.68576388888888  117.93272569444446 40.79774305555554  117.52213541666666 40.87239583333334  C 117.1115451388889 40.9470486111111  116.79427083333334 41.02170138888888  116.5703125 41.09635416666666  C 117.69010416666666 40.72309027777776  117.65277777777779 40.3125  116.45833333333334 39.86458333333334  C 115.71180555555559 39.56597222222222  115.11458333333334 39.45399305555554  114.66666666666666 39.52864583333334  C 115.33854166666666 39.23003472222222  115.61848958333334 38.78211805555554  115.50651041666666 38.18489583333334  C 115.39453125 37.5876736111111  115.07725694444446 37.06510416666666  114.5546875 36.6171875  L 115.11458333333334 36.6171875  C 115.03993055555559 36.31857638888888  114.72265625 36.00130208333334  114.16276041666666 35.66536458333334  C 113.60286458333334 35.32942708333334  112.94965277777779 35.01215277777776  112.203125 34.71354166666666  C 111.45659722222221 34.41493055555554  110.97135416666666 34.19097222222222  110.74739583333334 34.04166666666666  C 110.15017361111111 33.66840277777776  108.8810763888889 33.31380208333334  106.94010416666666 32.97786458333334  C 104.99913194444446 32.64192708333334  103.76736111111111 32.62326388888888  103.24479166666666 32.921875  C 102.87152777777779 33.36979166666666  102.70355902777779 33.76171875  102.74088541666666 34.09765625  C 102.77821180555559 34.43359375  102.92751736111111 34.95616319444442  103.18880208333334 35.66536458333334  C 103.45008680555556 36.37456597222222  103.58072916666666 36.84114583333334  103.58072916666666 37.06510416666666  C 103.65538194444446 37.51302083333334  103.45008680555556 37.99826388888888  102.96484375 38.52083333333334  C 102.47960069444446 39.04340277777776  102.23697916666666 39.49131944444442  102.23697916666666 39.86458333333334  C 102.23697916666666 40.38715277777776  102.75954861111111 40.96571180555554  103.8046875 41.60026041666666  C 104.8498263888889 42.23480902777776  105.22309027777779 43.03732638888888  104.92447916666666 44.0078125  C 104.70052083333334 44.60503472222222  104.10329861111111 45.20225694444442  103.1328125 45.79947916666666  C 102.1623263888889 46.39670138888888  101.56510416666666 46.84461805555554  101.34114583333334 47.14322916666666  C 100.96788194444446 47.74045138888888  100.91189236111111 48.43098958333334  101.17317708333334 49.21484375  C 101.43446180555556 49.99869791666666  101.8263888888889 50.61458333333334  102.34895833333334 51.0625  C 102.4982638888889 51.21180555555554  102.55425347222221 51.3611111111111  102.51692708333334 51.51041666666666  C 102.47960069444446 51.65972222222222  102.34895833333334 51.82769097222222  102.125 52.01432291666666  C 101.90104166666669 52.2009548611111  101.69574652777779 52.35026041666666  101.50911458333334 52.46223958333334  C 101.3224826388889 52.57421875  101.07986111111111 52.7048611111111  100.78125 52.85416666666666  L 100.4453125 53.078125  C 99.62413194444446 53.45138888888888  98.85894097222221 53.22743055555554  98.14973958333334 52.40625  C 97.44053819444446 51.58506944444442  96.93663194444446 50.61458333333334  96.63802083333334 49.49479166666666  C 96.1154513888889 47.62847222222222  95.51822916666666 46.50868055555554  94.84635416666666 46.13541666666666  C 93.12934027777779 45.53819444444442  92.046875 45.57552083333334  91.59895833333334 46.24739583333334  C 91.22569444444446 45.27690972222222  89.69531250000001 44.3064236111111  87.0078125 43.3359375  C 85.14149305555556 42.6640625  82.9765625 42.51475694444442  80.51302083333333 42.88802083333334  C 80.9609375 42.81336805555554  80.9609375 42.25347222222222  80.51302083333333 41.20833333333334  C 79.99045138888889 40.08854166666666  79.28125 39.640625  78.38541666666667 39.86458333333334  C 78.609375 39.41666666666666  78.75868055555556 38.7634548611111  78.83333333333333 37.90494791666666  C 78.90798611111111 37.04644097222222  78.9453125 36.54253472222222  78.9453125 36.39322916666666  C 79.16927083333333 35.42274305555554  79.6171875 34.5642361111111  80.2890625 33.81770833333334  C 80.36371527777779 33.74305555555554  80.625 33.42578125  81.07291666666667 32.86588541666666  C 81.52083333333333 32.30598958333334  81.87543402777779 31.80208333333334  82.13671875 31.35416666666666  C 82.39800347222223 30.90625  82.41666666666667 30.68229166666666  82.19270833333333 30.68229166666666  C 84.80555555555556 30.98090277777776  86.671875 30.5703125  87.79166666666666 29.45052083333334  C 88.16493055555559 29.07725694444442  88.59418402777779 28.44270833333334  89.07942708333334 27.546875  C 89.5646701388889 26.65104166666666  89.95659722222221 26.01649305555554  90.25520833333334 25.64322916666666  C 90.92708333333334 25.1953125  91.44965277777779 24.9900173611111  91.82291666666666 25.02734375  C 92.19618055555559 25.06467013888888  92.73741319444446 25.26996527777776  93.44661458333334 25.64322916666666  C 94.15581597222221 26.01649305555554  94.69704861111111 26.203125  95.0703125 26.203125  C 96.1154513888889 26.27777777777776  96.69401041666666 25.8671875  96.80598958333334 24.97135416666666  C 96.91796875 24.07552083333334  96.63802083333334 23.32899305555554  95.96614583333334 22.73177083333334  C 96.86197916666666 22.8064236111111  96.97395833333334 22.171875  96.30208333333334 20.828125  C 96.00347222222221 20.30555555555554  95.70486111111111 19.96961805555554  95.40625 19.8203125  C 94.51041666666669 19.52170138888888  93.50260416666669 19.70833333333334  92.3828125 20.38020833333334  C 91.78559027777779 20.67881944444442  91.86024305555556 20.97743055555554  92.60677083333334 21.27604166666666  C 92.53211805555556 21.20138888888888  92.17751736111111 21.59331597222222  91.54296875 22.45182291666666  C 90.9084201388889 23.3103298611111  90.29253472222221 23.96354166666666  89.6953125 24.41145833333334  C 89.09809027777779 24.859375  88.50086805555556 24.67274305555554  87.90364583333334 23.8515625  C 87.82899305555556 23.77690972222222  87.62369791666666 23.27300347222222  87.28776041666666 22.33984375  C 86.95182291666666 21.40668402777776  86.59722222222221 20.90277777777776  86.22395833333334 20.828125  C 85.62673611111111 20.828125  85.02951388888889 21.38802083333334  84.43229166666667 22.5078125  C 84.65625 21.91059027777776  84.24565972222223 21.35069444444442  83.20052083333333 20.828125  C 82.15538194444444 20.30555555555554  81.25954861111111 20.00694444444442  80.51302083333333 19.93229166666666  C 81.93142361111111 19.03645833333334  81.6328125 18.02864583333334  79.6171875 16.90885416666666  C 79.09461805555556 16.61024305555554  78.32942708333333 16.4236111111111  77.32161458333333 16.34895833333334  C 76.31380208333333 16.27430555555554  75.5859375 16.4236111111111  75.13802083333333 16.796875  C 74.76475694444444 17.31944444444442  74.55946180555556 17.74869791666666  74.52213541666667 18.08463541666666  C 74.48480902777779 18.42057291666666  74.67144097222223 18.71918402777776  75.08203125 18.98046875  C 75.49262152777779 19.24175347222222  75.88454861111111 19.4470486111111  76.2578125 19.59635416666666  C 76.63107638888889 19.74565972222222  77.06032986111111 19.89496527777776  77.54557291666667 20.04427083333334  C 78.03081597222223 20.19357638888888  78.34809027777779 20.30555555555554  78.49739583333333 20.38020833333334  C 79.54253472222223 21.1267361111111  79.84114583333333 21.64930555555554  79.39322916666667 21.94791666666666  C 79.24392361111111 22.02256944444442  78.92664930555556 22.15321180555554  78.44140625 22.33984375  C 77.95616319444444 22.52647569444442  77.52690972222223 22.69444444444442  77.15364583333333 22.84375  C 76.78038194444444 22.99305555555554  76.55642361111111 23.1423611111111  76.48177083333333 23.29166666666666  C 76.2578125 23.59027777777776  76.2578125 24.11284722222222  76.48177083333333 24.859375  C 76.70572916666667 25.60590277777776  76.63107638888889 26.12847222222222  76.2578125 26.42708333333334  C 75.88454861111111 26.05381944444442  75.54861111111111 25.40060763888888  75.25 24.46744791666666  C 74.95138888888889 23.53428819444442  74.69010416666667 22.91840277777776  74.46614583333333 22.61979166666666  C 74.98871527777779 23.29166666666666  74.05555555555556 23.515625  71.66666666666667 23.29166666666666  L 70.546875 23.1796875  C 70.24826388888889 23.1796875  69.65104166666667 23.25434027777776  68.75520833333333 23.40364583333334  C 67.859375 23.55295138888888  67.09418402777779 23.59027777777776  66.45963541666667 23.515625  C 65.82508680555556 23.44097222222222  65.32118055555556 23.1423611111111  64.94791666666667 22.61979166666666  C 64.64930555555556 22.02256944444442  64.64930555555556 21.27604166666666  64.94791666666667 20.38020833333334  C 65.02256944444444 20.08159722222222  65.171875 20.00694444444442  65.39583333333333 20.15625  C 65.09722222222223 19.93229166666666  64.68663194444444 19.57769097222222  64.1640625 19.09244791666666  C 63.64149305555556 18.6072048611111  63.26822916666667 18.28993055555554  63.04427083333333 18.140625  C 59.61024305555556 19.26041666666666  56.1015625 20.7907986111111  52.51822916666667 22.73177083333334  C 52.96614583333333 22.8064236111111  53.4140625 22.76909722222222  53.86197916666667 22.61979166666666  C 54.23524305555556 22.4704861111111  54.72048611111112 22.22786458333334  55.31770833333333 21.89192708333334  C 55.91493055555556 21.55598958333334  56.28819444444445 21.35069444444442  56.4375 21.27604166666666  C 58.97569444444445 20.23090277777776  60.54340277777779 19.96961805555554  61.140625 20.4921875  L 61.70052083333333 19.93229166666666  C 62.74565972222223 21.1267361111111  63.4921875 22.05989583333334  63.94010416666667 22.73177083333334  C 63.41753472222223 22.43315972222222  62.29774305555556 22.39583333333334  60.58072916666667 22.61979166666666  C 59.08767361111112 23.06770833333334  58.26649305555556 23.515625  58.1171875 23.96354166666666  C 58.63975694444445 24.859375  58.82638888888889 25.53125  58.67708333333333 25.97916666666666  C 58.37847222222223 25.75520833333334  57.94921875 25.38194444444442  57.38932291666667 24.859375  C 56.82942708333333 24.33680555555554  56.28819444444445 23.92621527777776  55.765625 23.62760416666666  C 55.24305555555556 23.32899305555554  54.68315972222223 23.1423611111111  54.0859375 23.06770833333334  C 52.89149305555556 23.06770833333334  52.0703125 23.10503472222222  51.62239583333333 23.1796875  C 40.72309027777778 29.15190972222222  31.951388888888896 37.43836805555554  25.307291666666664 48.0390625  C 25.829861111111114 48.56163194444442  26.27777777777778 48.86024305555554  26.651041666666664 48.93489583333334  C 26.94965277777778 49.0095486111111  27.136284722222225 49.3454861111111  27.2109375 49.94270833333334  C 27.28559027777778 50.53993055555554  27.37890625 50.95052083333334  27.490885416666664 51.17447916666666  C 27.602864583333336 51.3984375  28.032118055555554 51.28645833333334  28.778645833333336 50.83854166666666  C 29.450520833333336 51.43576388888888  29.5625 52.14496527777776  29.114583333333336 52.96614583333334  C 29.189236111111114 52.89149305555554  30.831597222222225 53.89930555555554  34.041666666666664 55.98958333333334  C 35.46006944444444 57.25868055555554  36.243923611111114 58.04253472222222  36.393229166666664 58.34114583333334  C 36.6171875 59.16232638888888  36.243923611111114 59.83420138888888  35.2734375 60.35677083333334  C 35.19878472222222 60.20746527777778  34.86284722222222 59.87152777777778  34.265625 59.34895833333334  C 33.66840277777778 58.82638888888888  33.33246527777778 58.67708333333332  33.2578125 58.90104166666666  C 33.033854166666664 59.27430555555554  33.052517361111114 59.96484375  33.313802083333336 60.97265625  C 33.57508680555556 61.98046875  33.96701388888889 62.4470486111111  34.489583333333336 62.37239583333334  C 33.96701388888889 62.37239583333334  33.61241319444444 62.96961805555554  33.42578125 64.1640625  C 33.23914930555556 65.35850694444441  33.145833333333336 66.68359374999999  33.145833333333336 68.13932291666666  C 33.145833333333336 69.59505208333331  33.10850694444444 70.47222222222221  33.033854166666664 70.77083333333334  L 33.2578125 70.8828125  C 33.033854166666664 71.77864583333334  33.23914930555556 73.06640625  33.873697916666664 74.74609375  C 34.50824652777778 76.42578125  35.31076388888889 77.15364583333334  36.28125 76.9296875  C 35.31076388888889 77.15364583333334  36.057291666666664 78.75868055555554  38.520833333333336 81.74479166666666  C 38.96875 82.34201388888889  39.267361111111114 82.67795138888889  39.416666666666664 82.75260416666666  C 39.640625 82.90190972222221  40.088541666666664 83.18185763888889  40.760416666666664 83.59244791666666  C 41.432291666666664 84.00303819444444  41.9921875 84.37630208333334  42.440104166666664 84.71223958333334  C 42.888020833333336 85.04817708333334  43.26128472222223 85.44010416666666  43.55989583333333 85.88802083333334  C 43.85850694444445 86.2612847222222  44.23177083333334 87.1011284722222  44.6796875 88.40755208333331  C 45.12760416666667 89.71397569444444  45.65017361111112 90.59114583333331  46.24739583333333 91.0390625  C 46.09809027777779 91.48697916666669  46.45269097222223 92.23350694444444  47.31119791666667 93.27864583333331  C 48.16970486111111 94.3237847222222  48.56163194444445 95.18229166666669  48.48697916666667 95.85416666666669  C 48.41232638888889 95.85416666666669  48.31901041666667 95.89149305555556  48.20703125 95.96614583333331  C 48.09505208333334 96.04079861111111  48.00173611111112 96.078125  47.92708333333333 96.078125  C 48.15104166666667 96.60069444444444  48.72960069444445 97.12326388888889  49.66276041666667 97.64583333333331  C 50.59592013888889 98.16840277777776  51.17447916666667 98.65364583333331  51.3984375 99.1015625  C 51.47309027777778 99.32552083333331  51.54774305555556 99.6987847222222  51.62239583333333 100.22135416666669  C 51.69704861111112 100.74392361111111  51.80902777777779 101.15451388888889  51.95833333333333 101.453125  C 52.10763888888889 101.75173611111111  52.40625 101.82638888888889  52.85416666666667 101.67708333333331  C 53.00347222222223 100.18402777777776  52.10763888888889 97.86979166666669  50.16666666666667 94.734375  C 49.046875 92.86805555555556  48.41232638888889 91.78559027777776  48.26302083333333 91.48697916666669  C 48.0390625 91.11371527777776  47.83376736111111 90.53515625  47.64713541666667 89.75130208333331  C 47.46050347222223 88.96744791666669  47.29253472222223 88.42621527777776  47.14322916666667 88.12760416666669  C 47.29253472222223 88.12760416666669  47.51649305555556 88.18359375  47.81510416666667 88.29557291666669  C 48.11371527777778 88.40755208333331  48.43098958333333 88.53819444444444  48.76692708333333 88.6875  C 49.10286458333333 88.83680555555556  49.3828125 88.98611111111111  49.60677083333333 89.13541666666669  C 49.83072916666667 89.2847222222222  49.90538194444445 89.39670138888889  49.83072916666667 89.47135416666669  C 49.60677083333333 89.99392361111111  49.68142361111111 90.64713541666669  50.0546875 91.43098958333331  C 50.42795138888889 92.21484375  50.87586805555556 92.90538194444444  51.3984375 93.50260416666669  C 51.92100694444445 94.09982638888889  52.55555555555556 94.80902777777776  53.30208333333333 95.63020833333331  C 54.04861111111112 96.45138888888889  54.49652777777779 96.93663194444444  54.64583333333333 97.0859375  C 55.09375 97.53385416666669  55.61631944444445 98.26171875  56.21354166666667 99.26953125  C 56.81076388888889 100.27734375  56.81076388888889 100.78125  56.21354166666667 100.78125  C 56.88541666666667 100.78125  57.63194444444445 101.17317708333331  58.453125 101.95703125  C 59.27430555555556 102.74088541666669  59.90885416666667 103.46875  60.35677083333333 104.140625  C 60.73003472222223 104.7378472222222  61.02864583333333 105.70833333333331  61.25260416666667 107.05208333333331  C 61.4765625 108.39583333333331  61.66319444444445 109.29166666666669  61.8125 109.73958333333331  C 61.96180555555556 110.26215277777776  62.27907986111112 110.76605902777776  62.76432291666667 111.25130208333331  C 63.24956597222223 111.73654513888889  63.71614583333333 112.09114583333331  64.1640625 112.31510416666669  L 65.95572916666667 113.2109375  C 65.95572916666667 113.2109375  66.44097222222223 113.4722222222222  67.41145833333333 113.99479166666669  C 67.78472222222223 114.1440972222222  68.47526041666667 114.53602430555556  69.48307291666667 115.17057291666669  C 70.49088541666667 115.80512152777776  71.29340277777779 116.234375  71.890625 116.45833333333331  C 72.63715277777779 116.75694444444444  73.234375 116.90625  73.68229166666667 116.90625  C 74.13020833333333 116.90625  74.67144097222223 116.81293402777776  75.30598958333333 116.62630208333331  C 75.94053819444444 116.43967013888889  76.44444444444444 116.30902777777776  76.81770833333333 116.234375  C 77.9375 116.08506944444444  79.01996527777779 116.64496527777776  80.06510416666667 117.9140625  C 81.11024305555556 119.1831597222222  81.89409722222223 119.96701388888889  82.41666666666667 120.265625  C 85.10416666666667 121.68402777777776  87.15711805555556 122.09461805555556  88.57552083333334 121.49739583333331  C 88.42621527777779 121.57204861111109  88.44487847222224 121.85199652777776  88.63151041666666 122.33723958333331  C 88.81814236111111 122.82248263888889  89.11675347222221 123.40104166666669  89.52734375 124.07291666666669  C 89.93793402777779 124.74479166666669  90.27387152777779 125.28602430555556  90.53515625 125.69661458333331  C 90.79644097222221 126.10720486111109  91.00173611111111 126.42447916666669  91.15104166666666 126.6484375  C 91.52430555555559 127.09635416666669  92.19618055555559 127.65625  93.16666666666666 128.328125  C 94.13715277777779 129  94.80902777777779 129.55989583333334  95.18229166666666 130.0078125  C 95.63020833333334 129.70920138888889  95.89149305555556 129.37326388888889  95.96614583333334 129  C 95.7421875 129.59722222222223  96.00347222222221 130.34375  96.75 131.23958333333334  C 97.49652777777779 132.13541666666666  98.16840277777779 132.50868055555554  98.765625 132.359375  C 99.8107638888889 132.13541666666666  100.33333333333334 130.94097222222223  100.33333333333334 128.77604166666669  C 98.01909722222221 129.89583333333334  96.19010416666666 129.22395833333334  94.84635416666666 126.76041666666669  C 94.84635416666666 126.68576388888889  94.75303819444446 126.48046875  94.56640625 126.14453125  C 94.37977430555556 125.80859375  94.23046875 125.49131944444444  94.11848958333334 125.19270833333331  C 94.00651041666666 124.8940972222222  93.91319444444446 124.57682291666669  93.83854166666666 124.24088541666669  C 93.7638888888889 123.90494791666669  93.7638888888889 123.625  93.83854166666666 123.40104166666669  C 93.91319444444446 123.17708333333331  94.0998263888889 123.06510416666669  94.3984375 123.06510416666669  C 95.07031250000001 123.06510416666669  95.4435763888889 122.93446180555556  95.51822916666666 122.67317708333331  C 95.59288194444446 122.41189236111109  95.51822916666666 121.9453125  95.29427083333334 121.2734375  C 95.0703125 120.6015625  94.92100694444446 120.11631944444444  94.84635416666666 119.81770833333331  C 94.7717013888889 119.22048611111109  94.36111111111111 118.47395833333331  93.61458333333334 117.578125  C 92.86805555555556 116.68229166666669  92.4201388888889 116.12239583333331  92.27083333333334 115.8984375  C 91.89756944444446 116.5703125  91.30034722222224 116.86892361111109  90.47916666666666 116.79427083333331  C 89.65798611111111 116.71961805555556  89.0607638888889 116.38368055555556  88.6875 115.78645833333331  C 88.68750000000001 115.86111111111109  88.63151041666669 116.06640625  88.51953125 116.40234375  C 88.40755208333334 116.73828125  88.35156250000001 116.98090277777776  88.3515625 117.13020833333331  C 87.3810763888889 117.13020833333331  86.82118055555556 117.09288194444444  86.671875 117.01822916666669  C 86.74652777777779 116.79427083333331  86.83984375 116.14105902777776  86.95182291666666 115.05859375  C 87.06380208333334 113.9761284722222  87.19444444444446 113.1362847222222  87.34375 112.5390625  C 87.41840277777779 112.24045138888889  87.62369791666666 111.7925347222222  87.95963541666666 111.1953125  C 88.29557291666666 110.59809027777776  88.57552083333334 110.05685763888889  88.79947916666666 109.57161458333331  C 89.0234375 109.08637152777776  89.17274305555556 108.61979166666669  89.24739583333334 108.171875  C 89.32204861111111 107.72395833333331  89.15407986111111 107.36935763888889  88.74348958333334 107.10807291666669  C 88.33289930555556 106.84678819444444  87.6796875 106.7534722222222  86.78385416666666 106.828125  C 85.36545138888889 106.90277777777776  84.39496527777779 107.64930555555556  83.87239583333333 109.06770833333331  C 83.79774305555556 109.29166666666669  83.68576388888889 109.68359375  83.53645833333333 110.24348958333331  C 83.38715277777779 110.80338541666669  83.20052083333333 111.23263888888889  82.9765625 111.53125  C 82.75260416666667 111.82986111111109  82.41666666666667 112.09114583333331  81.96875 112.31510416666669  C 81.44618055555556 112.5390625  80.55034722222223 112.61371527777776  79.28125 112.5390625  C 78.01215277777779 112.4644097222222  77.11631944444444 112.27777777777776  76.59375 111.97916666666669  C 75.62326388888889 111.38194444444444  74.78342013888889 110.29947916666669  74.07421875 108.73177083333331  C 73.36501736111111 107.1640625  73.01041666666667 105.78298611111109  73.01041666666667 104.58854166666669  C 73.01041666666667 103.84201388888889  73.10373263888889 102.85286458333331  73.29036458333333 101.62109375  C 73.47699652777779 100.38932291666669  73.58897569444444 99.45616319444444  73.62630208333333 98.82161458333331  C 73.66362847222223 98.1870659722222  73.45833333333333 97.27256944444444  73.01041666666667 96.078125  C 73.234375 95.92881944444444  73.5703125 95.57421875  74.01822916666667 95.01432291666669  C 74.46614583333333 94.45442708333331  74.83940972222223 94.0625  75.13802083333333 93.83854166666669  C 75.28732638888889 93.76388888888889  75.45529513888889 93.70789930555556  75.64192708333333 93.67057291666669  C 75.82855902777779 93.63324652777776  75.99652777777779 93.63324652777776  76.14583333333333 93.67057291666669  C 76.29513888888889 93.70789930555556  76.44444444444444 93.6519097222222  76.59375 93.50260416666669  C 76.74305555555556 93.35329861111111  76.85503472222223 93.12934027777776  76.9296875 92.83072916666669  C 76.85503472222223 92.75607638888889  76.70572916666667 92.6440972222222  76.48177083333333 92.49479166666669  C 76.2578125 92.27083333333331  76.10850694444444 92.15885416666669  76.03385416666667 92.15885416666669  C 76.55642361111111 92.3828125  77.62022569444444 92.32682291666669  79.22526041666667 91.99088541666669  C 80.83029513888889 91.65494791666669  81.85677083333333 91.7109375  82.3046875 92.15885416666669  C 83.42447916666667 92.9800347222222  84.24565972222223 92.90538194444444  84.76822916666667 91.93489583333331  C 84.76822916666667 91.86024305555556  84.67491319444444 91.50564236111111  84.48828125 90.87109375  C 84.30164930555556 90.23654513888889  84.28298611111111 89.73263888888889  84.43229166666667 89.359375  C 84.80555555555556 91.375  85.88802083333333 91.7109375  87.6796875 90.3671875  C 87.90364583333334 90.59114583333331  88.48220486111111 90.77777777777776  89.41536458333334 90.92708333333331  C 90.34852430555556 91.07638888888889  91.00173611111111 91.26302083333331  91.375 91.48697916666669  C 91.59895833333334 91.6362847222222  91.86024305555559 91.84157986111111  92.15885416666666 92.10286458333331  C 92.45746527777779 92.36414930555556  92.66276041666666 92.53211805555556  92.77473958333334 92.60677083333331  C 92.88671875 92.68142361111111  93.07335069444446 92.66276041666669  93.33463541666666 92.55078125  C 93.5959201388889 92.43880208333331  93.91319444444446 92.19618055555556  94.28645833333334 91.82291666666669  C 95.03298611111111 92.86805555555556  95.48090277777779 93.76388888888889  95.63020833333334 94.51041666666669  C 96.4513888888889 97.49652777777776  97.16059027777779 99.13888888888889  97.7578125 99.4375  C 98.28038194444446 99.66145833333331  98.69097222222221 99.73611111111111  98.98958333333334 99.66145833333331  C 99.28819444444446 99.58680555555556  99.45616319444446 99.23220486111111  99.49348958333334 98.59765625  C 99.53081597222221 97.96310763888889  99.53081597222221 97.44053819444444  99.49348958333334 97.02994791666669  C 99.45616319444446 96.61935763888889  99.40017361111111 96.15277777777776  99.32552083333334 95.63020833333331  L 99.21354166666666 94.734375  L 99.21354166666666 92.71875  L 99.1015625 91.82291666666669  C 97.98177083333334 91.59895833333331  97.2912326388889 91.15104166666669  97.02994791666666 90.47916666666669  C 96.76866319444446 89.80729166666669  96.82465277777779 89.1167534722222  97.19791666666666 88.40755208333331  C 97.57118055555559 87.69835069444444  98.1310763888889 87.0078125  98.87760416666666 86.3359375  C 98.95225694444446 86.2612847222222  99.25086805555556 86.13064236111111  99.7734375 85.94401041666666  C 100.29600694444446 85.75737847222221  100.87456597222221 85.51475694444444  101.50911458333334 85.21614583333334  C 102.14366319444446 84.91753472222221  102.61024305555559 84.6189236111111  102.90885416666666 84.3203125  C 104.4765625 82.90190972222221  105.03645833333334 81.5954861111111  104.58854166666666 80.40104166666666  C 105.11111111111111 80.40104166666666  105.5217013888889 80.06510416666666  105.8203125 79.39322916666666  C 105.74565972222221 79.39322916666666  105.55902777777779 79.28125  105.26041666666666 79.05729166666666  C 104.96180555555559 78.83333333333334  104.6818576388889 78.64670138888889  104.42057291666666 78.49739583333334  C 104.15928819444446 78.34809027777779  103.99131944444446 78.2734375  103.91666666666666 78.2734375  C 104.58854166666666 77.9001736111111  104.66319444444446 77.30295138888889  104.140625 76.48177083333334  C 104.5138888888889 76.2578125  104.79383680555556 75.84722222222221  104.98046875 75.25  C 105.16710069444446 74.65277777777779  105.44704861111111 74.27951388888889  105.8203125 74.13020833333334  C 106.49218750000001 75.02604166666666  107.27604166666669 75.10069444444444  108.171875 74.35416666666666  C 108.76909722222221 73.75694444444444  108.80642361111111 73.15972222222221  108.28385416666666 72.5625  C 108.65711805555559 72.03993055555554  109.42230902777779 71.64800347222221  110.57942708333334 71.38671875  C 111.7365451388889 71.12543402777776  112.42708333333334 70.77083333333331  112.65104166666666 70.32291666666666  C 113.17361111111111 70.47222222222221  113.47222222222221 70.39756944444444  113.546875 70.09895833333334  C 113.62152777777779 69.80034722222221  113.65885416666666 69.35243055555554  113.65885416666666 68.75520833333334  C 113.65885416666666 68.1579861111111  113.77083333333334 67.71006944444444  113.99479166666666 67.41145833333334  C 114.29340277777779 67.03819444444444  114.85329861111111 66.70225694444444  115.67447916666666 66.40364583333334  C 116.49565972222224 66.10503472222221  116.98090277777779 65.91840277777776  117.13020833333334 65.84375  L 119.03385416666666 64.61197916666666  C 119.2578125 64.31336805555554  119.2578125 64.1640625  119.03385416666666 64.1640625  C 120.37760416666666 64.31336805555554  121.53472222222224 63.90277777777778  122.50520833333334 62.93229166666666  C 123.25173611111111 62.1111111111111  123.02777777777779 61.36458333333334  121.83333333333334 60.69270833333334  C 122.05729166666666 60.24479166666666  121.9453125 59.89019097222222  121.49739583333334 59.62890625  C 121.04947916666666 59.36762152777776  120.48958333333334 59.16232638888888  119.81770833333334 59.01302083333334  C 120.04166666666666 58.93836805555554  120.4709201388889 58.9197048611111  121.10546875 58.95703125  C 121.74001736111111 58.99435763888888  122.13194444444446 58.93836805555554  122.28125 58.7890625  C 123.40104166666666 58.04253472222222  123.13975694444446 57.4453125  121.49739583333334 56.99739583333334  Z M 98.20572916666666 154.75520833333334  C 98.20572916666666 155.203125  98.28038194444446 155.80034722222223  98.4296875 156.546875  C 113.80815972222221 153.859375  126.90972222222224 146.8046875  137.734375 135.3828125  C 137.51041666666666 135.15885416666666  137.04383680555557 134.99088541666666  136.33463541666666 134.87890625  C 135.62543402777777 134.76692708333334  135.15885416666666 134.63628472222223  134.93489583333334 134.48697916666666  C 133.59114583333334 133.96440972222223  132.6953125 133.66579861111111  132.24739583333334 133.59114583333334  C 132.32204861111111 133.06857638888889  132.22873263888889 132.58333333333334  131.96744791666666 132.13541666666666  C 131.70616319444446 131.6875  131.40755208333334 131.3515625  131.07161458333334 131.12760416666666  C 130.73567708333334 130.90364583333334  130.26909722222223 130.60503472222223  129.671875 130.23177083333334  C 129.07465277777777 129.85850694444446  128.6640625 129.59722222222223  128.44010416666666 129.44791666666666  C 128.29079861111111 129.29861111111111  128.02951388888889 129.07465277777777  127.65625 128.77604166666669  C 127.28298611111111 128.47743055555557  127.0217013888889 128.27213541666669  126.87239583333334 128.16015625  C 126.72309027777779 128.04817708333331  126.44314236111111 127.88020833333331  126.03255208333334 127.65625  C 125.62196180555559 127.43229166666669  125.3046875 127.35763888888889  125.08072916666666 127.43229166666669  C 124.85677083333334 127.50694444444444  124.48350694444446 127.54427083333331  123.9609375 127.54427083333331  L 123.625 127.65625  C 123.40104166666666 127.73090277777776  123.19574652777779 127.82421875  123.00911458333334 127.93619791666669  C 122.8224826388889 128.04817708333331  122.6171875 128.16015625  122.39322916666666 128.27213541666669  C 122.16927083333334 128.38411458333331  122.01996527777779 128.49609375  121.9453125 128.60807291666669  C 121.87065972222224 128.72005208333331  121.87065972222224 128.81336805555557  121.9453125 128.88802083333331  C 120.37760416666666 127.61892361111109  119.03385416666666 126.79774305555556  117.9140625 126.42447916666669  C 117.54079861111111 126.34982638888889  117.13020833333334 126.14453125  116.68229166666666 125.80859375  C 116.234375 125.47265625  115.84244791666666 125.21137152777776  115.50651041666666 125.02473958333331  C 115.17057291666666 124.83810763888889  114.79730902777779 124.78211805555556  114.38671875 124.85677083333331  C 113.97612847222221 124.93142361111109  113.546875 125.19270833333331  113.09895833333334 125.640625  C 112.72569444444446 126.01388888888889  112.50173611111111 126.5737847222222  112.42708333333334 127.3203125  C 112.35243055555556 128.06684027777777  112.27777777777779 128.55208333333331  112.203125 128.77604166666669  C 111.68055555555556 128.40277777777777  111.68055555555556 127.7495659722222  112.203125 126.81640625  C 112.72569444444446 125.88324652777776  112.80034722222221 125.19270833333331  112.42708333333334 124.74479166666669  C 112.203125 124.296875  111.81119791666666 124.12890625  111.25130208333334 124.24088541666669  C 110.69140625 124.35286458333331  110.24348958333334 124.52083333333331  109.90755208333334 124.74479166666669  C 109.57161458333334 124.96875  109.14236111111111 125.28602430555556  108.61979166666666 125.69661458333331  C 108.09722222222224 126.10720486111109  107.76128472222224 126.34982638888889  107.61197916666666 126.42447916666669  C 107.46267361111111 126.49913194444444  107.14539930555556 126.70442708333331  106.66015625 127.04036458333331  C 106.17491319444446 127.37630208333331  105.8576388888889 127.65625  105.70833333333334 127.88020833333331  C 105.484375 128.17881944444443  105.26041666666666 128.6267361111111  105.03645833333334 129.22395833333334  C 104.8125 129.82118055555554  104.62586805555556 130.23177083333334  104.4765625 130.45572916666666  C 104.32725694444446 130.15711805555554  103.89800347222221 129.91449652777777  103.18880208333334 129.72786458333334  C 102.47960069444446 129.54123263888889  102.12500000000001 129.3359375  102.125 129.11197916666666  C 102.27430555555556 129.85850694444446  102.42361111111111 131.16493055555554  102.57291666666666 133.03125  C 102.72222222222224 134.89756944444443  102.90885416666669 136.31597222222223  103.1328125 137.28645833333334  C 103.65538194444446 139.60069444444446  103.20746527777779 141.39236111111111  101.7890625 142.66145833333334  C 99.77343750000001 144.52777777777777  98.69097222222224 146.02083333333334  98.54166666666666 147.140625  C 98.24305555555559 148.78298611111111  98.69097222222224 149.75347222222223  99.88541666666666 150.05208333333334  C 99.88541666666666 150.57465277777777  99.58680555555556 151.33984375  98.98958333333334 152.34765625  C 98.39236111111111 153.35546875  98.1310763888889 154.15798611111111  98.20572916666666 154.75520833333334  Z " fill-rule="nonzero" fill="#679bf5" stroke="none" transform="matrix(1 0 0 1 499 1063 )" />
    </g>
  </defs>
  <g transform="matrix(1 0 0 1 -489 -1048 )">
    <use xlink:href="#widget3" filter="url(#filter2)" />
    <use xlink:href="#widget3" />
  </g>
</svg>